<?xml version="1.0" encoding="UTF-8" standalone="no"?>
<!DOCTYPE svg PUBLIC "-//W3C//DTD SVG 1.1//EN"
 "http://www.w3.org/Graphics/SVG/1.1/DTD/svg11.dtd">
<!-- Generated by graphviz version 2.38.0 (20140413.2041)
 -->
<!-- Title: %3 Pages: 1 -->
<svg width="186pt" height="283pt"
  xmlns="http://www.w3.org/2000/svg" xmlns:xlink="http://www.w3.org/1999/xlink">
<g id="graph0" class="graph" transform="scale(1.38889 1.38889) rotate(0) translate(4 200)">
<title>%3</title>
<polygon fill="white" stroke="none" points="-4,4 -4,-200 130,-200 130,4 -4,4"/>
<!-- a -->
<g id="node1" class="node"><title>a</title>
<polygon fill="none" stroke="black" points="93,-196 39,-196 39,-160 93,-160 93,-196"/>
<text text-anchor="middle" x="66" y="-174.3" font-family="Times,serif" font-size="14.00">a</text>
</g>
<!-- b -->
<g id="node2" class="node"><title>b</title>
<polygon fill="none" stroke="black" points="54,-109 -3.55271e-15,-109 -3.55271e-15,-73 54,-73 54,-109"/>
<text text-anchor="middle" x="27" y="-87.3" font-family="Times,serif" font-size="14.00">b</text>
</g>
<!-- a&#45;&#45;b -->
<g id="edge1" class="edge"><title>a&#45;&#45;b</title>
<path fill="none" stroke="black" d="M58.1078,-159.799C51.3414,-145.052 41.6434,-123.915 34.8805,-109.175"/>
</g>
<!-- c -->
<g id="node3" class="node"><title>c</title>
<polygon fill="none" stroke="black" points="126,-109 72,-109 72,-73 126,-73 126,-109"/>
<text text-anchor="middle" x="99" y="-87.3" font-family="Times,serif" font-size="14.00">c</text>
</g>
<!-- a&#45;&#45;c -->
<g id="edge2" class="edge"><title>a&#45;&#45;c</title>
<path fill="none" stroke="black" d="M69.8626,-159.557C72.2743,-149.803 75.7325,-137.526 80,-127 82.4419,-120.977 85.6522,-114.658 88.7374,-109.073"/>
</g>
<!-- a&#45;&#45;c -->
<g id="edge4" class="edge"><title>a&#45;&#45;c</title>
<path fill="none" stroke="black" stroke-dasharray="5,2" d="M72.678,-159.799C78.4034,-145.052 86.6094,-123.915 92.3319,-109.175"/>
<text text-anchor="middle" x="105.5" y="-130.8" font-family="Times,serif" font-size="14.00">another</text>
</g>
<!-- d -->
<g id="node4" class="node"><title>d</title>
<polygon fill="none" stroke="black" points="126,-36 72,-36 72,-0 126,-0 126,-36"/>
<text text-anchor="middle" x="99" y="-14.3" font-family="Times,serif" font-size="14.00">d</text>
</g>
<!-- c&#45;&#45;d -->
<g id="edge3" class="edge"><title>c&#45;&#45;d</title>
<path fill="none" stroke="black" d="M99,-72.8129C99,-61.6499 99,-47.1602 99,-36.0288"/>
</g>
</g>
</svg>
