<?xml version="1.0" encoding="UTF-8" standalone="no"?>
<!DOCTYPE svg PUBLIC "-//W3C//DTD SVG 1.1//EN"
 "http://www.w3.org/Graphics/SVG/1.1/DTD/svg11.dtd">
<!-- Generated by graphviz version 2.38.0 (20140413.2041)
 -->
<!-- Title: %3 Pages: 1 -->
<svg width="308pt" height="283pt"
  xmlns="http://www.w3.org/2000/svg" xmlns:xlink="http://www.w3.org/1999/xlink">
<g id="graph0" class="graph" transform="scale(1.38889 1.38889) rotate(0) translate(4 200)">
<title>%3</title>
<polygon fill="white" stroke="none" points="-4,4 -4,-200 217.5,-200 217.5,4 -4,4"/>
<!-- a -->
<g id="node1" class="node"><title>a</title>
<polygon fill="none" stroke="black" points="121,-196 67,-196 67,-160 121,-160 121,-196"/>
<text text-anchor="middle" x="94" y="-174.3" font-family="Times,serif" font-size="14.00">a</text>
</g>
<!-- b -->
<g id="node2" class="node"><title>b</title>
<polygon fill="none" stroke="black" points="54,-109 0,-109 0,-73 54,-73 54,-109"/>
<text text-anchor="middle" x="27" y="-87.3" font-family="Times,serif" font-size="14.00">b</text>
</g>
<!-- a&#45;&#45;b -->
<g id="edge1" class="edge"><title>a&#45;&#45;b</title>
<path fill="none" stroke="black" d="M80.4416,-159.799C68.8174,-145.052 52.1567,-123.915 40.5383,-109.175"/>
</g>
<!-- c -->
<g id="node3" class="node"><title>c</title>
<polygon fill="none" stroke="black" points="126,-109 72,-109 72,-73 126,-73 126,-109"/>
<text text-anchor="middle" x="99" y="-87.3" font-family="Times,serif" font-size="14.00">c</text>
</g>
<!-- a&#45;&#45;c -->
<g id="edge2" class="edge"><title>a&#45;&#45;c</title>
<path fill="none" stroke="black" d="M92.1421,-159.841C91.389,-150.176 90.9214,-137.893 92,-127 92.574,-121.203 93.6702,-114.945 94.8278,-109.345"/>
</g>
<!-- a&#45;&#45;c -->
<g id="edge4" class="edge"><title>a&#45;&#45;c</title>
<path fill="none" stroke="black" stroke-dasharray="5,2" d="M95.0118,-159.799C95.8793,-145.052 97.1226,-123.915 97.9897,-109.175"/>
<text text-anchor="middle" x="117.5" y="-130.8" font-family="Times,serif" font-size="14.00">another</text>
</g>
<!-- html -->
<g id="html" class="node"><title>html</title>
<polygon fill="none" stroke="blue" points="213.5,-109 144.5,-109 144.5,-73 213.5,-73 213.5,-109"/>
<text text-anchor="start" x="157" y="-86.8" font-family="Times,serif" font-size="14.00">hic</text>
<polygon fill="none" stroke="blue" points="178,-80 178,-101 204,-101 204,-80 178,-80"/>
<text text-anchor="start" x="181" y="-86.8" font-family="Times,serif" font-size="14.00">cup</text>
</g>
<!-- a&#45;&#45;html -->
<g id="edge5" class="edge"><title>a&#45;&#45;html</title>
<path fill="none" stroke="black" d="M120.563,-159.826C127.875,-154.529 135.56,-148.395 142,-142 151.962,-132.108 161.347,-119.369 168.173,-109.225"/>
</g>
<!-- d -->
<g id="node4" class="node"><title>d</title>
<polygon fill="none" stroke="black" points="126,-36 72,-36 72,-0 126,-0 126,-36"/>
<text text-anchor="middle" x="99" y="-14.3" font-family="Times,serif" font-size="14.00">d</text>
</g>
<!-- c&#45;&#45;d -->
<g id="edge3" class="edge"><title>c&#45;&#45;d</title>
<path fill="none" stroke="black" d="M99,-72.8129C99,-61.6499 99,-47.1602 99,-36.0288"/>
</g>
</g>
</svg>
